<svg width="120" height="42" viewBox="0 0 120 42" fill="none" xmlns="http://www.w3.org/2000/svg">
<path d="M34.5222 19.5381C34.5271 27.0675 28.4256 33.1752 20.8956 33.18C13.3656 33.1844 7.25682 27.084 7.25244 19.5546C7.25244 19.5488 7.25244 19.5439 7.25244 19.5381C7.24807 12.0083 13.3491 5.90054 20.8791 5.89618C28.4101 5.89181 34.5178 11.9923 34.5222 19.5216C34.5222 19.5269 34.5222 19.5323 34.5222 19.5381Z" fill="white"/>
<path d="M31.9713 8.4333C34.9949 11.4566 36.5069 15.1587 36.5069 19.5381C36.5069 23.918 35.021 27.5808 32.0494 30.5264C28.8958 33.6283 25.1687 35.1791 20.8679 35.1791C16.6191 35.1791 12.9565 33.6414 9.88102 30.5648C6.80506 27.4896 5.26733 23.8137 5.26733 19.5381C5.26733 15.263 6.80506 11.5614 9.88102 8.4333C12.8784 5.40855 16.541 3.89714 20.8679 3.89714C25.2472 3.89713 28.9477 5.40855 31.9713 8.4333ZM11.9166 10.4668C9.36033 13.0485 8.08271 16.0733 8.08271 19.542C8.08271 23.0102 9.34773 26.0088 11.8773 28.5381C14.4074 31.0674 17.4193 32.3324 20.914 32.3324C24.4088 32.3324 27.4464 31.0553 30.0284 28.4993C32.4798 26.1262 33.706 23.1412 33.706 19.542C33.706 15.9699 32.4599 12.9384 29.9692 10.4479C27.4789 7.95779 24.4607 6.71229 20.914 6.71229C17.3674 6.71229 14.3676 7.96409 11.9166 10.4668ZM18.6436 18.0165C18.2529 17.1645 17.6682 16.739 16.8884 16.739C15.5099 16.739 14.8208 17.6672 14.8208 19.5221C14.8208 21.378 15.5099 22.3057 16.8884 22.3057C17.7987 22.3057 18.449 21.854 18.8391 20.9486L20.75 21.9661C19.8392 23.5842 18.4728 24.3935 16.6507 24.3935C15.2454 24.3935 14.1196 23.9627 13.2743 23.1014C12.4276 22.2397 12.0054 21.0519 12.0054 19.5381C12.0054 18.0505 12.4412 16.869 13.3132 15.9947C14.1852 15.1199 15.2711 14.6827 16.573 14.6827C18.499 14.6827 19.878 15.4411 20.7117 16.9573L18.6436 18.0165ZM27.6337 18.0165C27.2426 17.1645 26.6695 16.739 25.914 16.739C24.5077 16.739 23.8042 17.6672 23.8042 19.5221C23.8042 21.378 24.5077 22.3057 25.914 22.3057C26.8258 22.3057 27.4644 21.854 27.8287 20.9486L29.7824 21.9661C28.873 23.5842 27.5085 24.3935 25.6898 24.3935C24.2865 24.3935 23.1631 23.9627 22.3183 23.1014C21.475 22.2397 21.0523 21.0519 21.0523 19.5381C21.0523 18.0505 21.4813 16.869 22.3387 15.9947C23.1956 15.1199 24.2865 14.6827 25.6122 14.6827C27.5347 14.6827 28.9118 15.4411 29.7426 16.9573L27.6337 18.0165Z" fill="black"/>
<path d="M117.753 0H2.24715C1.00832 0 0 1.00728 0 2.246V41.493C0 41.7729 0.227563 42 0.507551 42H119.492C119.772 42 120 41.7729 120 41.493V2.246C120 1.00728 118.992 0 117.753 0ZM2.24715 1.01407H117.753C118.433 1.01407 118.985 1.56671 118.985 2.246C118.985 2.246 118.985 18.0311 118.985 29.4546H36.4278C33.4018 34.9258 27.5721 38.64 20.8815 38.64C14.1881 38.64 8.35977 34.9287 5.33525 29.4546H1.01512C1.01512 18.0311 1.01512 2.246 1.01512 2.246C1.01512 1.56672 1.56781 1.01407 2.24715 1.01407Z" fill="black"/>
<path d="M59.9966 32.7472C60.3125 32.7472 60.6002 32.7753 60.8603 32.8306C61.1204 32.886 61.3436 32.9772 61.5299 33.1043C61.7153 33.2304 61.8599 33.3993 61.9618 33.6089C62.0637 33.8195 62.1151 34.0786 62.1151 34.3881C62.1151 34.722 62.0394 34.9995 61.8871 35.2217C61.7357 35.4449 61.5105 35.6264 61.2136 35.769C61.6231 35.8864 61.9288 36.0922 62.1307 36.3862C62.3325 36.6802 62.4335 37.0344 62.4335 37.4488C62.4335 37.7826 62.3685 38.0718 62.2384 38.3164C62.1084 38.5599 61.9327 38.7598 61.7134 38.9141C61.4931 39.0694 61.2417 39.1839 60.9603 39.2576C60.6779 39.3324 60.3886 39.3692 60.0907 39.3692H56.8745V32.7472H59.9966V32.7472ZM59.8107 35.4255C60.0703 35.4255 60.2843 35.3634 60.4517 35.2402C60.6186 35.1169 60.7021 34.917 60.7021 34.6395C60.7021 34.4852 60.674 34.3581 60.6186 34.2601C60.5624 34.1611 60.4886 34.0844 60.3954 34.0281C60.3028 33.9728 60.196 33.934 60.0752 33.9127C59.9543 33.8913 59.8292 33.8806 59.6991 33.8806H58.3341V35.4255H59.8107ZM59.8956 38.2358C60.0383 38.2358 60.1742 38.2222 60.3047 38.1941C60.4342 38.1659 60.5497 38.1194 60.6487 38.0553C60.7477 37.9903 60.8263 37.902 60.8855 37.7904C60.9447 37.6798 60.9738 37.5371 60.9738 37.3644C60.9738 37.0247 60.8778 36.7821 60.6856 36.6366C60.4934 36.492 60.2397 36.4192 59.9238 36.4192H58.3341V38.2358H59.8956Z" fill="white"/>
<path d="M62.6906 32.7472H64.3239L65.8748 35.3624L67.4159 32.7472H69.0396L66.5813 36.8277V39.3692H65.1217V36.7909L62.6906 32.7472Z" fill="white"/>
<path d="M86.4337 32.7472L89.2005 37.1897H89.2161V32.7472H90.5825V39.3693H89.1258L86.3696 34.9355H86.3512V39.3693H84.9847V32.7472H86.4337Z" fill="white"/>
<path d="M96.1114 34.5114C96.0251 34.3717 95.9164 34.2494 95.7863 34.1446C95.6563 34.0398 95.5097 33.9573 95.3457 33.8991C95.1817 33.8399 95.0099 33.8108 94.8313 33.8108C94.5033 33.8108 94.2248 33.8739 93.9958 34.001C93.7667 34.1271 93.5814 34.297 93.4397 34.5104C93.297 34.7239 93.1932 34.9665 93.1281 35.2383C93.0631 35.51 93.0311 35.7914 93.0311 36.0815C93.0311 36.36 93.0631 36.6308 93.1281 36.8928C93.1932 37.1558 93.297 37.3925 93.4397 37.6022C93.5814 37.8127 93.7667 37.9806 93.9958 38.1077C94.2248 38.2349 94.5033 38.2979 94.8313 38.2979C95.2758 38.2979 95.6242 38.1621 95.8746 37.8894C96.125 37.6177 96.2783 37.2586 96.3336 36.8132H97.7438C97.7069 37.2276 97.6108 37.6022 97.4565 37.936C97.3022 38.2708 97.0974 38.5551 96.8441 38.7909C96.5908 39.0267 96.2939 39.2062 95.9532 39.3304C95.6136 39.4547 95.239 39.5168 94.8313 39.5168C94.3238 39.5168 93.8676 39.4285 93.462 39.2519C93.0573 39.0762 92.7147 38.8326 92.4362 38.5241C92.1567 38.2145 91.9432 37.8506 91.7947 37.4333C91.6462 37.0151 91.5715 36.5658 91.5715 36.0825C91.5715 35.5876 91.6462 35.1286 91.7947 34.7045C91.9432 34.2805 92.1567 33.9107 92.4362 33.5954C92.7147 33.28 93.0573 33.0325 93.462 32.853C93.8676 32.6735 94.3238 32.5842 94.8313 32.5842C95.1963 32.5842 95.5408 32.6366 95.8659 32.7424C96.19 32.8472 96.4812 33.0005 96.7374 33.2023C96.9946 33.4032 97.2061 33.6526 97.3731 33.9496C97.54 34.2465 97.6448 34.5871 97.6885 34.9704H96.2783C96.2541 34.8035 96.1978 34.6502 96.1114 34.5114Z" fill="white"/>
<path d="M101.718 14.9806C101.722 20.4813 97.2663 24.9428 91.7646 24.9471C86.2639 24.9505 81.8015 20.4949 81.7977 14.9952C81.7977 14.9894 81.7977 14.985 81.7977 14.9806C81.7938 9.47939 86.2493 5.01795 91.75 5.01361C97.2518 5.01021 101.714 9.46583 101.718 14.9656C101.718 14.9704 101.718 14.9758 101.718 14.9806Z" fill="white"/>
<path d="M91.7433 3.38524C94.9934 3.38524 97.7419 4.50605 99.9866 6.74721C102.231 8.98931 103.354 11.7341 103.354 14.9806C103.354 18.2271 102.251 20.9423 100.045 23.1266C97.7031 25.4265 94.9362 26.5754 91.7433 26.5754C88.5882 26.5754 85.8699 25.4352 83.5863 23.1548C81.3027 20.8753 80.1614 18.1499 80.1614 14.9806C80.1614 11.8108 81.3027 9.066 83.5863 6.74721C85.8116 4.50605 88.5309 3.38524 91.7433 3.38524ZM82.7701 11.8651C82.4246 12.8438 82.2519 13.8821 82.2519 14.9806C82.2519 17.5507 83.1894 19.7725 85.0663 21.6477C86.9432 23.5216 89.1783 24.4595 91.7724 24.4595C94.3655 24.4595 96.619 23.5128 98.5347 21.6181C99.1762 20.999 99.7052 20.3227 100.12 19.59L95.7475 17.6439C95.4515 19.1145 94.1413 20.1077 92.5565 20.2242V22.0121H91.225V20.2242C89.9236 20.2096 88.6658 19.6773 87.705 18.836L89.3015 17.2256C90.0711 17.9495 90.8407 18.2746 91.8907 18.2746C92.5711 18.2746 93.3252 18.0082 93.3252 17.1218C93.3252 16.8079 93.2029 16.5895 93.0117 16.4255L91.9063 15.9326L90.5292 15.3202C89.8489 15.0165 89.2724 14.7608 88.693 14.5027L82.7701 11.8651ZM91.7724 5.4721C89.1404 5.4721 86.9151 6.39934 85.0964 8.2552C84.6005 8.75499 84.1705 9.27704 83.8037 9.82144L88.2379 11.7952C88.6377 10.5653 89.8062 9.81901 91.225 9.73655V7.94857H92.5565V9.73655C93.4736 9.78069 94.4791 10.032 95.4699 10.7996L93.9462 12.3658C93.3843 11.9675 92.6749 11.6866 91.9645 11.6866C91.3881 11.6866 90.5748 11.8632 90.5748 12.5866C90.5748 12.6977 90.6107 12.7948 90.6786 12.8811L92.1615 13.541L93.165 13.9884C93.8065 14.2751 94.4199 14.5468 95.0274 14.8176L100.969 17.4624C101.166 16.6846 101.264 15.8569 101.264 14.9806C101.264 12.3319 100.335 10.0912 98.4775 8.25519C96.6384 6.39934 94.4034 5.4721 91.7724 5.4721Z" fill="black"/>
<path d="M63.3596 25.9551C69.2907 25.9551 74.0988 21.1475 74.0988 15.2169C74.0988 9.28632 69.2907 4.47865 63.3596 4.47865C57.4285 4.47865 52.6204 9.28632 52.6204 15.2169C52.6204 21.1475 57.4285 25.9551 63.3596 25.9551Z" fill="white"/>
<path d="M66.4679 12.1101C66.4679 11.6963 66.1321 11.361 65.7186 11.361H60.9759C60.5624 11.361 60.2266 11.6963 60.2266 12.1101V16.853H61.5494V22.4692H65.1441V16.853H66.4678V12.1101H66.4679Z" fill="black"/>
<path d="M63.3473 10.7365C64.2432 10.7365 64.9694 10.0103 64.9694 9.11451C64.9694 8.21869 64.2432 7.49248 63.3473 7.49248C62.4514 7.49248 61.7251 8.21869 61.7251 9.11451C61.7251 10.0103 62.4514 10.7365 63.3473 10.7365Z" fill="black"/>
<path fill-rule="evenodd" clip-rule="evenodd" d="M63.3322 3.38574C60.1208 3.38574 57.401 4.50607 55.1757 6.74819C52.8922 9.06697 51.7509 11.8117 51.7509 14.9806C51.7509 18.1495 52.8922 20.8748 55.1757 23.1553C57.4593 25.4352 60.1786 26.5755 63.3322 26.5755C66.5251 26.5755 69.2929 25.4265 71.6337 23.1262C73.8406 20.9428 74.9431 18.2276 74.9431 14.9806C74.9431 11.7336 73.8212 8.98981 71.5765 6.74817C69.3317 4.50607 66.5833 3.38574 63.3322 3.38574ZM63.3613 5.47211C65.9933 5.47211 68.2283 6.4003 70.0664 8.25522C71.9249 10.0912 72.8537 12.3329 72.8537 14.9806C72.8537 17.6473 71.9443 19.8603 70.1246 21.6186C68.2089 23.5129 65.9544 24.4595 63.3613 24.4595C60.7682 24.4595 58.5331 23.5221 56.6567 21.6478C54.7788 19.773 53.8408 17.5507 53.8408 14.9806C53.8408 12.41 54.789 10.1684 56.6853 8.25522C58.5045 6.40029 60.7303 5.47211 63.3613 5.47211Z" fill="black"/>
</svg>
