<?xml version="1.0" encoding="UTF-8" standalone="no"?>
<svg
   xmlns:dc="http://purl.org/dc/elements/1.1/"
   xmlns:cc="http://creativecommons.org/ns#"
   xmlns:rdf="http://www.w3.org/1999/02/22-rdf-syntax-ns#"
   xmlns:svg="http://www.w3.org/2000/svg"
   xmlns="http://www.w3.org/2000/svg"
   xmlns:sodipodi="http://sodipodi.sourceforge.net/DTD/sodipodi-0.dtd"
   xmlns:inkscape="http://www.inkscape.org/namespaces/inkscape"
   height="102.0152"
   width="334.28552"
   id="svg10"
   xml:space="preserve"
   viewBox="0 0 334.28553 102.0152"
   y="0px"
   x="0px"
   version="1.1"
   sodipodi:docname="logo-guo-text-outline-borderless.svg"
   inkscape:version="1.0.1 (3bc2e813f5, 2020-09-07)"><sodipodi:namedview
     pagecolor="#ffffff"
     bordercolor="#666666"
     borderopacity="1"
     objecttolerance="10"
     gridtolerance="10"
     guidetolerance="10"
     inkscape:pageopacity="0"
     inkscape:pageshadow="2"
     inkscape:window-width="1860"
     inkscape:window-height="1016"
     id="namedview18"
     showgrid="false"
     inkscape:zoom="3.412467"
     inkscape:cx="166.30165"
     inkscape:cy="51.600487"
     inkscape:window-x="60"
     inkscape:window-y="27"
     inkscape:window-maximized="1"
     inkscape:current-layer="svg10" /><metadata
     id="metadata16"><rdf:RDF><cc:Work
         rdf:about=""><dc:format>image/svg+xml</dc:format><dc:type
           rdf:resource="http://purl.org/dc/dcmitype/StillImage" /><dc:title></dc:title></cc:Work></rdf:RDF></metadata><defs
     id="defs14"><style
       type="text/css"
       id="style955">
   
    .fil0 {fill:black}
   
  </style><style
       type="text/css"
       id="style1002">
   
    .fil0 {fill:black}
   
  </style></defs><style
     id="style2"
     type="text/css">
	.st0{fill:#231F20;}
	.st1{fill:#FFFFFF;stroke:#231F20;stroke-linecap:round;stroke-linejoin:round;stroke-miterlimit:10;}
	.st2{fill:#FFFFFF;stroke:#808080;stroke-width:1.5;}
	.st3{fill:none;stroke:#808080;stroke-width:1.5;}
	.st4{fill:url(#SVGID_1_);}
	.st5{fill:#F2F2F2;}
	.st6{fill:#D9D9D9;}
	.st7{fill:none;stroke:#000000;stroke-miterlimit:10;}
	.st8{fill:#5D5D5D;}
	.st9{fill:none;stroke:#29ABE2;stroke-width:2;stroke-linecap:round;stroke-linejoin:round;stroke-miterlimit:10;}
	.st10{fill:none;stroke:#A67C52;stroke-width:2;stroke-linecap:round;stroke-linejoin:round;stroke-miterlimit:10;}
	.st11{fill:none;stroke:#8CC63F;stroke-width:2;stroke-linecap:round;stroke-linejoin:round;stroke-miterlimit:10;}
	.st12{fill:none;stroke:#000000;stroke-width:3;stroke-linecap:round;stroke-linejoin:round;stroke-miterlimit:10;}
	.st13{fill:none;stroke:#000000;stroke-width:2;stroke-linejoin:round;stroke-miterlimit:10;}
	.st14{fill:none;stroke:#000000;stroke-width:2;stroke-miterlimit:10;}
	.st15{fill:none;stroke:#000000;stroke-width:5;stroke-miterlimit:10;}
	.st16{fill:none;stroke:#5D5D5D;stroke-width:5;stroke-miterlimit:10;}
	.st17{fill:none;stroke:#5D5D5D;stroke-width:5;stroke-linecap:round;stroke-linejoin:round;stroke-miterlimit:10;}
	.st18{fill:none;stroke:#000000;stroke-width:10;stroke-linecap:round;stroke-linejoin:round;stroke-miterlimit:10;}
	.st19{fill:none;stroke:#000000;stroke-width:5;stroke-linecap:round;stroke-linejoin:round;stroke-miterlimit:10;}
	.st20{fill:none;stroke:#000000;stroke-width:8;stroke-linecap:round;stroke-linejoin:round;stroke-miterlimit:10;}
</style><g
     transform="translate(-39.362411,-11.140137)"
     id="g961"><rect
   style="fill:#cc112f;fill-opacity:1;stroke:none;stroke-width:3.09752;stroke-linecap:round;stroke-linejoin:round;stroke-miterlimit:4;stroke-dasharray:none;stroke-opacity:1"
   id="rect1030"
   width="334.28552"
   height="102.0152"
   x="39.362411"
   y="11.140137" /><g
   id="g942"
   transform="translate(4,-0.30001049)"><g
     style="fill:#ffffff"
     transform="matrix(0.98011669,0,0,0.98011669,113.2754,-18.661562)"
     id="g840"><path
       style="fill:#ffffff;stroke-width:0.725347"
       d="m -15.341024,76.973193 c -0.818917,1.871395 -2.308054,3.368511 -4.174372,4.199759 l -0.05368,0.02321 c -1.081492,0.481632 -2.239146,0.726799 -3.409131,0.726799 h -6.385229 l -2.040401,-2.0404 h -28.55981 l -2.040401,2.0404 h -6.839296 c -1.009683,0 -2.007035,-0.206724 -2.934754,-0.609291 -1.917817,-0.851558 -3.440321,-2.491566 -4.276646,-4.403581 -1.019837,-2.334167 -2.26961,-5.187682 -2.26961,-5.187682 v 9.687733 c 0,5.918831 4.803973,10.717727 10.725705,10.710473 l 5.594601,-0.008 -12.24023,4.090227 3.422187,2.28194 c 1.759691,1.17289 3.824755,1.79813 5.941317,1.79813 h 2.876726 v 2.42992 c 0,1.31868 0.341638,2.61632 0.989373,3.76382 l 2.325462,4.11344 3.314836,12.24022 -0.528053,2.4125 c -0.696333,3.17702 1.310702,6.31923 4.485545,7.02572 l 0.173359,0.0384 c 3.659375,0.81312 7.451489,0.81312 11.110864,0 l 0.145069,-0.0304 c 3.20821,-0.71374 5.21452,-3.86101 4.518912,-7.04094 -0.295941,-1.35131 -0.525151,-2.40451 -0.525151,-2.40451 l 3.314835,-12.24023 2.325463,-4.11344 c 0.647734,-1.1475 0.989373,-2.44514 0.989373,-3.76383 v -2.42991 h 2.876726 c 2.116562,0 4.18235,-0.62452 5.941316,-1.79813 l 3.422188,-2.28195 -12.239505,-4.080798 h 5.609833 c 5.916655,0 10.710473,-4.793818 10.710473,-10.709748 v -9.690635 z"
       id="path823" /></g><g
     transform="matrix(0.21316757,0,0,0.21316757,113.30829,35.454679)"
     id="g1028"
     style="clip-rule:evenodd;fill:#ffffff;fill-opacity:1;fill-rule:evenodd;image-rendering:optimizeQuality;shape-rendering:geometricPrecision;text-rendering:geometricPrecision"><g
       style="fill:#ffffff;fill-opacity:1"
       transform="matrix(0.78038688,0,0,0.78038688,-326.47986,-105.27954)"
       id="g1010"><path
         style="fill:#ffffff;fill-opacity:1"
         class="fil0"
         d="m 149,70 c -32,0 -59,26 -59,59 0,32 27,58 59,58 33,0 59,-26 59,-58 0,-33 -26,-59 -59,-59 z"
         id="path1006" /><path
         style="fill:#ffffff;fill-opacity:1"
         class="fil0"
         d="M 281,40 H 224 L 204,4 C 203,1 200,0 198,0 H 101 C 99,0 96,1 95,4 L 75,40 H 17 C 8,40 0,48 0,57 v 52 h 74 c 8,-34 39,-59 75,-59 37,0 67,25 76,59 h 73 V 57 c 0,-9 -7,-17 -17,-17 z M 0,126 v 96 c 0,10 8,18 17,18 h 264 c 10,0 17,-8 17,-18 v -96 h -71 c 1,44 -33,81 -78,81 -45,0 -79,-36 -78,-81 z"
         id="path1008" /></g></g></g><path
   d="m 142.09766,18.994141 c -11.04,0 -19.30664,7.734661 -19.30664,19.361328 0,11.679999 8.58648,19.412109 19.14648,19.412109 6.34667,0 10.77336,-3.145208 12.69336,-5.171875 h 0.10742 c 0,0.426667 -0.0527,0.905183 -0.0527,4.478516 h 5.27929 V 36.861328 h -16 v 5.439453 h 10.50782 v 4.160157 c -1.38667,2.346666 -5.70743,5.759765 -12.10743,5.759765 -7.89333,0 -13.65429,-5.385234 -13.65429,-13.865234 0,-8.426667 5.38716,-13.814453 13.17383,-13.814453 6.93333,0 10.23953,4.053724 11.51953,6.40039 l 5.75976,-1.546875 c -2.34666,-5.706666 -8.53307,-10.40039 -17.0664,-10.40039 z m 74.66796,0 c -11.03999,0 -19.41406,7.840729 -19.41406,19.414062 0,11.52 8.37407,19.359375 19.41406,19.359375 11.09334,0 19.51954,-7.839375 19.51954,-19.359375 0,-11.573333 -8.4262,-19.414062 -19.51954,-19.414062 z m -50.13476,0.748047 v 37.332031 h 5.86719 V 43.208984 h 3.78711 c 0.69333,0 2.18557,-0.0014 2.8789,-0.05469 l 8,13.919922 h 7.04102 l -9.01367,-14.986328 c 5.01333,-1.333334 8.05273,-4.800391 8.05273,-10.400391 0,-7.413333 -5.33297,-11.945312 -14.29297,-11.945312 z m 75.20117,0 v 37.332031 h 25.97266 v -5.492188 h -20.10742 v -11.09375 h 15.30664 v -5.49414 h -15.30664 v -9.759766 h 19.94726 v -5.492187 z m 30.3457,0 v 5.492187 h 12.37305 v 31.839844 h 5.86719 V 25.234375 h 12.37305 v -5.492187 z m 36.21289,0 v 37.332031 h 25.97461 v -5.492188 h -20.10742 v -11.09375 h 15.30664 v -5.49414 h -15.30664 v -9.759766 h 19.94727 v -5.492187 z m 32.21485,0 v 37.332031 h 5.86523 v -18.50586 c 0,-4.693333 -0.10547,-9.120494 -0.10547,-9.173828 h 0.10547 l 19.89453,27.679688 h 5.97266 V 19.742188 h -5.86719 v 18.558593 c 0,4.213333 0.10742,8.694714 0.10742,8.748047 h -0.16015 l -19.83985,-27.30664 z m -123.83985,4.798828 c 7.68,0 13.59961,5.280521 13.59961,13.867187 0,8.533333 -5.91961,13.8125 -13.59961,13.8125 -7.62666,0 -13.49414,-5.3325 -13.49414,-13.8125 0,-8.533333 5.86748,-13.867187 13.49414,-13.867187 z m -44.26757,0.58789 h 6.7207 c 5.06667,0 8,2.292839 8,6.826172 0,4.64 -3.04044,6.453125 -7.78711,6.453125 h -6.93359 z m 68.10742,43.865235 c -11.04,0 -19.41406,7.840729 -19.41406,19.414062 0,11.52 8.37406,19.359377 19.41406,19.359377 11.09333,0 19.51953,-7.839377 19.51953,-19.359377 0,-11.573333 -8.4262,-19.414062 -19.51953,-19.414062 z m 37.22656,0 c -8,0 -13.12109,3.733281 -13.12109,10.613281 0,7.626666 6.39953,9.654792 11.51953,10.828125 4.58667,1.066667 10.1875,1.173125 10.1875,6.453125 0,3.786668 -2.88029,5.652348 -7.62695,5.652348 -5.12,0 -9.01219,-2.13269 -9.49219,-6.66602 l -5.6543,1.546875 c 1.54667,8.319995 8.79982,10.345705 15.14649,10.345705 8.53333,0 13.59961,-3.67891 13.5996,-10.878908 0,-8.213333 -6.50606,-10.134505 -12.05273,-11.201172 -5.33333,-1.066667 -9.65234,-1.972969 -9.65234,-6.292969 0,-3.2 2.29179,-5.173828 7.09179,-5.173828 4.90667,0 7.6273,2.080365 8.64063,5.707031 l 5.59961,-1.492187 c -1.81334,-6.453333 -6.98555,-9.441406 -14.18555,-9.441406 z m 32.21289,0 c -8,0 -13.12109,3.733281 -13.12109,10.613281 0,7.626666 6.40148,9.654792 11.52148,10.828125 4.58667,1.066667 10.18555,1.173125 10.18555,6.453125 0,3.786668 -2.88029,5.652348 -7.62695,5.652348 -5.12,0 -9.01219,-2.13269 -9.49219,-6.66602 l -5.6543,1.546875 c 1.54667,8.319995 8.79982,10.345705 15.14649,10.345705 8.53333,0 13.60156,-3.67891 13.60156,-10.878908 0,-8.213333 -6.50802,-10.134505 -12.05469,-11.201172 -5.33333,-1.066667 -9.65234,-1.972969 -9.65234,-6.292969 0,-3.2 2.29375,-5.173828 7.09375,-5.173828 4.90666,0 7.62534,2.080365 8.63867,5.707031 l 5.59961,-1.492187 c -1.81333,-6.453333 -6.98555,-9.441406 -14.18555,-9.441406 z m -185.8125,0.748047 v 21.386718 c 0,10.773334 5.65271,16.638674 15.35938,16.638674 9.70666,0 15.35937,-5.86534 15.35937,-16.638674 V 69.742188 h -5.8125 v 21.332031 c 0,7.52 -3.04081,11.146481 -9.49414,11.146481 -6.4,0 -9.43945,-3.626481 -9.43945,-11.146481 V 69.742188 Z m 37.8125,0 v 37.332032 h 5.86719 V 69.742188 Z m 11.4668,0 v 5.492187 h 12.37305 v 31.839845 h 5.86718 V 75.234375 H 204.125 v -5.492187 z m 67.09375,4.798828 c 7.68,0 13.59961,5.280521 13.59961,13.867187 0,8.533333 -5.91961,13.812497 -13.59961,13.812497 -7.62667,0 -13.49414,-5.332497 -13.49414,-13.812497 0,-8.533333 5.86747,-13.867187 13.49414,-13.867187 z"
   id="text932"
   style="font-style:normal;font-weight:normal;font-size:40px;line-height:1.25;font-family:sans-serif;letter-spacing:0px;word-spacing:0px;fill:#ffffff;fill-opacity:1;stroke:none" />
</g></svg>
